<svg id="Ebene_1" data-name="Ebene 1" xmlns="http://www.w3.org/2000/svg" viewBox="0 0 561.98 133.55"><defs><style>.cls-1{fill:#21b9d4;}.cls-2{fill:#003e5a;}</style></defs><title>Comet Logo</title><path class="cls-1" d="M338.2,320.37a37.9,37.9,0,1,1,26.69-64.8c.52.52,1,1.05,1.52,1.59a3.75,3.75,0,1,1-5.58,5c-.4-.44-.8-.86-1.22-1.27a30.4,30.4,0,1,0,0,43.12c.4-.41.8-.82,1.19-1.25a3.75,3.75,0,1,1,5.58,5c-.48.54-1,1.06-1.48,1.56A37.67,37.67,0,0,1,338.2,320.37Z" transform="translate(-136.56 -228.93)"/><path class="cls-1" d="M420.62,320.37a37.91,37.91,0,0,1-13-73.5,3.75,3.75,0,1,1,2.57,7,30.38,30.38,0,1,0,21,0,3.75,3.75,0,1,1,2.61-7,37.91,37.91,0,0,1-13.2,73.44Z" transform="translate(-136.56 -228.93)"/><path class="cls-1" d="M482.56,319.7a3.75,3.75,0,0,1-3.75-3.75V249.79a3.75,3.75,0,0,1,6.6-2.4l29.8,33.05L545,247.33l.06-.07a3.77,3.77,0,0,1,1.19-.85,3.91,3.91,0,0,1,1.49-.33h.35a3.78,3.78,0,0,1,1,.22,3.87,3.87,0,0,1,1,.54h0l.27.23a3.79,3.79,0,0,1,1.19,2.68v66.17a3.75,3.75,0,0,1-7.5,0V259.59l-26.09,29a3.75,3.75,0,0,1-5.57,0l-26.11-29V316A3.75,3.75,0,0,1,482.56,319.7Z" transform="translate(-136.56 -228.93)"/><path class="cls-1" d="M616.15,286.18H592.22a3.75,3.75,0,0,1,0-7.5h23.93a3.75,3.75,0,0,1,0,7.5Z" transform="translate(-136.56 -228.93)"/><path class="cls-1" d="M622.47,319.7H576.73A3.75,3.75,0,0,1,573,316V249.83a3.75,3.75,0,0,1,3.75-3.75h45.74a3.75,3.75,0,0,1,0,7.5h-42V312.2h42a3.75,3.75,0,0,1,0,7.5Z" transform="translate(-136.56 -228.93)"/><path class="cls-1" d="M694.79,246.08H643.51a3.75,3.75,0,0,0,0,7.5H665.4v62.26a3.75,3.75,0,1,0,7.5,0V253.58h21.89a3.75,3.75,0,0,0,0-7.5Z" transform="translate(-136.56 -228.93)"/><path class="cls-2" d="M305.09,358.05a1.08,1.08,0,0,1,1.29-1.72,5.67,5.67,0,0,0,3.64,1.34c1.41,0,2.3-.67,2.3-1.64v0c0-.93-.52-1.43-2.93-2-2.77-.67-4.32-1.48-4.32-3.87v0c0-2.22,1.85-3.76,4.43-3.76a7.09,7.09,0,0,1,4.11,1.2,1,1,0,0,1,.5.91,1.06,1.06,0,0,1-1.07,1.06,1.1,1.1,0,0,1-.59-.17,5.42,5.42,0,0,0-3-1c-1.33,0-2.11.68-2.11,1.54v0c0,1,.59,1.45,3.09,2,2.75.67,4.16,1.65,4.16,3.8v0c0,2.43-1.91,3.88-4.64,3.88A8,8,0,0,1,305.09,358.05Z" transform="translate(-136.56 -228.93)"/><path class="cls-2" d="M319.43,347.6a1.14,1.14,0,0,1,1.15-1.15h.24a1.22,1.22,0,0,1,1.06.61l3.93,6.15,3.95-6.17a1.13,1.13,0,0,1,1-.59H331a1.15,1.15,0,0,1,1.15,1.15v10.86a1.13,1.13,0,0,1-1.15,1.13,1.15,1.15,0,0,1-1.14-1.13v-7.79l-3.17,4.77a1.1,1.1,0,0,1-1,.59,1.12,1.12,0,0,1-.95-.59l-3.15-4.73v7.77a1.11,1.11,0,0,1-1.13,1.11,1.09,1.09,0,0,1-1.11-1.11Z" transform="translate(-136.56 -228.93)"/><path class="cls-2" d="M336.64,358l4.82-10.76a1.46,1.46,0,0,1,1.38-.92H343a1.42,1.42,0,0,1,1.35.92L349.12,358a1,1,0,0,1,.13.48,1.07,1.07,0,0,1-1.08,1.09,1.18,1.18,0,0,1-1.11-.79L346,356.37H339.7l-1.09,2.5a1.11,1.11,0,0,1-1.06.72,1,1,0,0,1-1.06-1A1.18,1.18,0,0,1,336.64,358Zm8.49-3.67-2.28-5.25-2.28,5.25Z" transform="translate(-136.56 -228.93)"/><path class="cls-2" d="M353.57,347.67a1.13,1.13,0,0,1,1.15-1.15h4.63a5.24,5.24,0,0,1,3.75,1.3,3.94,3.94,0,0,1,1.07,2.8v0a3.84,3.84,0,0,1-2.94,3.87l2.48,3.14a1.3,1.3,0,0,1,.37.87,1.07,1.07,0,0,1-1.09,1,1.29,1.29,0,0,1-1.11-.59l-3.16-4h-2.87v3.48a1.14,1.14,0,0,1-2.28,0Zm5.62,5.29c1.63,0,2.67-.86,2.67-2.17v0c0-1.39-1-2.15-2.69-2.15h-3.32V353Z" transform="translate(-136.56 -228.93)"/><path class="cls-2" d="M372,348.64h-3.15a1.06,1.06,0,0,1,0-2.12h8.62a1.06,1.06,0,0,1,0,2.12H374.3v9.82a1.15,1.15,0,0,1-2.3,0Z" transform="translate(-136.56 -228.93)"/><path class="cls-2" d="M390.72,353v0a2.63,2.63,0,0,1,5.25,0v0a2.63,2.63,0,0,1-5.25,0Z" transform="translate(-136.56 -228.93)"/><path class="cls-2" d="M409.21,358.35V347.67a1.13,1.13,0,0,1,1.15-1.15h7.54a1,1,0,0,1,1,1,1,1,0,0,1-1,1h-6.41v3.38h5.58a1,1,0,0,1,1,1,1,1,0,0,1-1,1h-5.58v3.48H418a1,1,0,0,1,0,2h-7.63A1.13,1.13,0,0,1,409.21,358.35Z" transform="translate(-136.56 -228.93)"/><path class="cls-2" d="M422.75,353.05v0a6.79,6.79,0,0,1,13.57,0v0a6.74,6.74,0,0,1-1.31,4l.83.68a1.13,1.13,0,0,1,.43.89,1.09,1.09,0,0,1-1.88.76l-.92-.83a6.76,6.76,0,0,1-4,1.22A6.59,6.59,0,0,1,422.75,353.05Zm7,1.7a1.09,1.09,0,0,1,1.07-1.09,1.11,1.11,0,0,1,.8.33l1.67,1.52a4.81,4.81,0,0,0,.63-2.46v0a4.45,4.45,0,0,0-4.41-4.62,4.39,4.39,0,0,0-4.38,4.58v0a4.45,4.45,0,0,0,6.66,4l-1.61-1.38A1.11,1.11,0,0,1,429.76,354.75Z" transform="translate(-136.56 -228.93)"/><path class="cls-2" d="M441.06,354v-6.43a1.14,1.14,0,0,1,2.28,0v6.34c0,2.41,1.24,3.69,3.28,3.69s3.27-1.2,3.27-3.6v-6.43a1.14,1.14,0,0,1,2.28,0v6.32c0,3.88-2.19,5.82-5.58,5.82S441.06,357.76,441.06,354Z" transform="translate(-136.56 -228.93)"/><path class="cls-2" d="M457.6,347.56a1.14,1.14,0,0,1,2.28,0v10.9a1.14,1.14,0,0,1-2.28,0Z" transform="translate(-136.56 -228.93)"/><path class="cls-2" d="M465.44,347.67a1.13,1.13,0,0,1,1.15-1.15h4c3.05,0,4.94,1.73,4.94,4.34v0c0,2.91-2.34,4.43-5.19,4.43h-2.58v3.13a1.14,1.14,0,0,1-2.28,0Zm4.93,5.6c1.72,0,2.8-1,2.8-2.32v0c0-1.52-1.09-2.32-2.8-2.32h-2.65v4.67Z" transform="translate(-136.56 -228.93)"/><path class="cls-2" d="M479.84,347.6a1.14,1.14,0,0,1,1.15-1.15h.24a1.22,1.22,0,0,1,1.06.61l3.92,6.15,4-6.17a1.16,1.16,0,0,1,1-.59h.24a1.14,1.14,0,0,1,1.15,1.15v10.86a1.13,1.13,0,0,1-1.15,1.13,1.15,1.15,0,0,1-1.13-1.13v-7.79l-3.17,4.77a1.07,1.07,0,0,1-1.91,0l-3.15-4.73v7.77a1.11,1.11,0,0,1-1.13,1.11,1.09,1.09,0,0,1-1.11-1.11Z" transform="translate(-136.56 -228.93)"/><path class="cls-2" d="M498.13,358.35V347.67a1.13,1.13,0,0,1,1.15-1.15h7.54a1,1,0,0,1,1,1,1,1,0,0,1-1,1h-6.41v3.38H506a1,1,0,0,1,1,1,1,1,0,0,1-1,1h-5.58v3.48h6.5a1,1,0,0,1,0,2h-7.63A1.13,1.13,0,0,1,498.13,358.35Z" transform="translate(-136.56 -228.93)"/><path class="cls-2" d="M512.57,347.6a1.14,1.14,0,0,1,1.14-1.15H514a1.43,1.43,0,0,1,1.18.67l6.49,8.39v-8a1.12,1.12,0,0,1,2.24,0v10.9a1.11,1.11,0,0,1-1.11,1.13h-.09a1.43,1.43,0,0,1-1.19-.68l-6.67-8.64v8.23a1.12,1.12,0,0,1-2.24,0Z" transform="translate(-136.56 -228.93)"/><path class="cls-2" d="M532.32,348.64h-3.15a1.06,1.06,0,1,1,0-2.12h8.62a1.06,1.06,0,0,1,0,2.12h-3.17v9.82a1.15,1.15,0,0,1-2.3,0Z" transform="translate(-136.56 -228.93)"/><path class="cls-2" d="M551,353v0a2.63,2.63,0,0,1,5.25,0v0a2.63,2.63,0,0,1-5.25,0Z" transform="translate(-136.56 -228.93)"/><path class="cls-2" d="M569.19,358.05a1.06,1.06,0,0,1,.63-1.92,1.07,1.07,0,0,1,.67.2,5.67,5.67,0,0,0,3.64,1.34c1.41,0,2.29-.67,2.29-1.64v0c0-.93-.51-1.43-2.92-2-2.77-.67-4.32-1.48-4.32-3.87v0c0-2.22,1.85-3.76,4.43-3.76a7.12,7.12,0,0,1,4.11,1.2,1,1,0,0,1,.5.91,1.06,1.06,0,0,1-1.07,1.06,1.13,1.13,0,0,1-.6-.17,5.37,5.37,0,0,0-3-1c-1.34,0-2.11.68-2.11,1.54v0c0,1,.59,1.45,3.09,2,2.75.67,4.16,1.65,4.16,3.8v0c0,2.43-1.92,3.88-4.64,3.88A8.08,8.08,0,0,1,569.19,358.05Z" transform="translate(-136.56 -228.93)"/><path class="cls-2" d="M582.72,353.05v0a6.79,6.79,0,0,1,13.57,0v0a6.65,6.65,0,0,1-6.81,6.71A6.58,6.58,0,0,1,582.72,353.05Zm11.18,0v0a4.45,4.45,0,0,0-4.42-4.62,4.39,4.39,0,0,0-4.37,4.58v0a4.44,4.44,0,0,0,4.41,4.6A4.37,4.37,0,0,0,593.9,353.05Z" transform="translate(-136.56 -228.93)"/><path class="cls-2" d="M601.13,347.56a1.14,1.14,0,0,1,2.28,0v9.86h5.88a1,1,0,0,1,0,2.08h-7a1.13,1.13,0,0,1-1.15-1.15Z" transform="translate(-136.56 -228.93)"/><path class="cls-2" d="M613.9,354v-6.43a1.14,1.14,0,0,1,2.28,0v6.34c0,2.41,1.24,3.69,3.28,3.69s3.26-1.2,3.26-3.6v-6.43a1.14,1.14,0,0,1,2.28,0v6.32c0,3.88-2.18,5.82-5.58,5.82S613.9,357.76,613.9,354Z" transform="translate(-136.56 -228.93)"/><path class="cls-2" d="M633.35,348.64H630.2a1.06,1.06,0,0,1,0-2.12h8.62a1.06,1.06,0,0,1,0,2.12h-3.17v9.82a1.15,1.15,0,0,1-2.3,0Z" transform="translate(-136.56 -228.93)"/><path class="cls-2" d="M644.16,347.56a1.14,1.14,0,0,1,2.28,0v10.9a1.14,1.14,0,0,1-2.28,0Z" transform="translate(-136.56 -228.93)"/><path class="cls-2" d="M651.3,353.05v0a6.79,6.79,0,0,1,13.58,0v0a6.79,6.79,0,0,1-13.58,0Zm11.18,0v0a4.45,4.45,0,0,0-4.41-4.62A4.39,4.39,0,0,0,653.7,353v0a4.43,4.43,0,0,0,4.41,4.6A4.36,4.36,0,0,0,662.48,353.05Z" transform="translate(-136.56 -228.93)"/><path class="cls-2" d="M669.72,347.6a1.14,1.14,0,0,1,1.15-1.15h.24a1.43,1.43,0,0,1,1.18.67l6.49,8.39v-8a1.12,1.12,0,0,1,2.24,0v10.9a1.11,1.11,0,0,1-1.11,1.13h-.09a1.43,1.43,0,0,1-1.19-.68L672,350.25v8.23a1.12,1.12,0,0,1-2.24,0Z" transform="translate(-136.56 -228.93)"/><path class="cls-2" d="M686.2,358.05a1.06,1.06,0,0,1,.63-1.92,1.09,1.09,0,0,1,.67.2,5.63,5.63,0,0,0,3.63,1.34c1.41,0,2.3-.67,2.3-1.64v0c0-.93-.52-1.43-2.93-2-2.76-.67-4.32-1.48-4.32-3.87v0c0-2.22,1.85-3.76,4.43-3.76a7.15,7.15,0,0,1,4.12,1.2,1,1,0,0,1,.5.91,1.06,1.06,0,0,1-1.08,1.06,1.12,1.12,0,0,1-.59-.17,5.4,5.4,0,0,0-3-1c-1.33,0-2.11.68-2.11,1.54v0c0,1,.59,1.45,3.1,2,2.74.67,4.15,1.65,4.15,3.8v0c0,2.43-1.91,3.88-4.63,3.88A8.06,8.06,0,0,1,686.2,358.05Z" transform="translate(-136.56 -228.93)"/><path class="cls-1" d="M151.48,335.23a3.72,3.72,0,0,1-3.08-1.61,66.77,66.77,0,0,1,92.87-92.88,3.75,3.75,0,1,1-4.27,6.17,59.27,59.27,0,0,0-82.44,82.44,3.74,3.74,0,0,1-3.08,5.88Z" transform="translate(-136.56 -228.93)"/><path class="cls-2" d="M203.31,362.48a66.48,66.48,0,0,1-37.9-11.85,3.75,3.75,0,0,1,4.27-6.16A59.27,59.27,0,0,0,252.12,262a3.75,3.75,0,0,1,6.17-4.26,66.8,66.8,0,0,1-55,104.72Z" transform="translate(-136.56 -228.93)"/><path class="cls-1" d="M180.18,300.26a23,23,0,0,0,46,.81c0-.27,0-.54,0-.81a25.21,25.21,0,0,0-3.88-12.67c-2.23-3.67-16.75-22.43-19.15-25.51-2.39,3.08-16.91,21.84-19.14,25.51a25.13,25.13,0,0,0-3.89,12.67" transform="translate(-136.56 -228.93)"/></svg>